 <svg  version="1.0" xmlns="http://www.w3.org/2000/svg"  width="1500.000000pt" height="1500.000000pt" viewBox="0 0 1500.000000 1500.000000"  preserveAspectRatio="xMidYMid meet">  <g transform="translate(0.000000,1500.000000) scale(0.100000,-0.100000)" fill="#bfc4d9" stroke="none"> <path d="M500 14986 c0 -16 -21 -26 -54 -26 -12 0 -62 -20 -113 -45 -75 -37 -103 -58 -160 -119 -71 -76 -138 -187 -157 -261 -7 -27 -11 -2031 -13 -6275 -3 -5555 -2 -6242 12 -6296 54 -217 221 -385 449 -451 58 -17 358 -18 6276 -18 5918 0 6218 1 6276 18 236 68 403 246 458 487 16 70 16 467 13 6270 -3 5758 -4 6199 -19 6248 -59 185 -177 329 -329 401 -48 23 -95 41 -107 41 -31 0 -52 11 -52 26 0 12 -913 14 -6240 14 -5327 0 -6240 -2 -6240 -14z m8987 -2934 c16 -10 38 -112 59 -267 24 -186 24 -573 0 -670 -9 -38 -19 -81 -22 -95 -12 -54 -90 -193 -140 -248 -73 -82 -188 -156 -292 -191 -190 -63 -150 -61 -1473 -61 -948 0 -1209 -3 -1222 -12 -16 -12 -17 -64 -10 -793 l8 -780 1197 -5 c819 -3 1200 -8 1208 -16 12 -12 35 -95 50 -186 47 -271 62 -611 35 -838 -20 -173 -63 -419 -79 -452 0 -2 -543 -5 -1206 -8 l-1205 -5 -5 -1542 c-3 -1008 -8 -1545 -15 -1552 -5 -5 -104 -22 -220 -37 -205 -27 -221 -28 -680 -28 -301 0 -499 4 -550 12 -44 6 -136 18 -205 27 -89 12 -129 21 -137 33 -17 21 -19 7622 -3 7652 6 11 27 31 48 45 l37 25 2405 0 c1323 0 2410 -4 2417 -8z"/> </g> </svg> 